<svg xmlns="http://www.w3.org/2000/svg" viewBox="0 0 100 100" width="100" height="100">
  <!-- Background Circle -->
  <circle cx="50" cy="50" r="48" fill="#ffffff" opacity="0.15"/>

  <!-- Main Icon: Layered Database/Repository Symbol -->
  <!-- Bottom Layer -->
  <ellipse cx="50" cy="70" rx="28" ry="8" fill="#ffffff" opacity="0.3"/>
  <rect x="22" y="60" width="56" height="10" fill="#ffffff" opacity="0.3"/>

  <!-- Middle Layer -->
  <ellipse cx="50" cy="50" rx="28" ry="8" fill="#ffffff" opacity="0.5"/>
  <rect x="22" y="40" width="56" height="10" fill="#ffffff" opacity="0.5"/>

  <!-- Top Layer -->
  <ellipse cx="50" cy="30" rx="28" ry="8" fill="#ffffff"/>
  <rect x="22" y="20" width="56" height="10" fill="#ffffff"/>
  <ellipse cx="50" cy="20" rx="28" ry="8" fill="#ffffff"/>

  <!-- Accent: Configuration Gear Icon -->
  <circle cx="70" cy="30" r="12" fill="#667eea"/>
  <circle cx="70" cy="30" r="8" fill="#ffffff"/>
  <circle cx="70" cy="30" r="4" fill="#667eea"/>

  <!-- Gear Teeth -->
  <rect x="68" y="18" width="4" height="6" fill="#667eea" rx="1"/>
  <rect x="68" y="36" width="4" height="6" fill="#667eea" rx="1"/>
  <rect x="58" y="28" width="6" height="4" fill="#667eea" rx="1"/>
  <rect x="76" y="28" width="6" height="4" fill="#667eea" rx="1"/>
</svg>
